<svg viewBox="0 0 24 24" xmlns="http://www.w3.org/2000/svg">
  <path
    class="jp-icon3"
    fill="#616161"
    d="M21 7V13.5283C19.9385 12.5781 18.5368 12 17 12C15.5965 12 14.3061 12.4827 13.2842 13.29C12.8948 13.1057 12.4603 13 12 13C10.34 13 9 14.34 9 16C9 17.3315 9.8627 18.4553 11.0605 18.8486C11.1703 19.6234 11.4285 20.3499 11.8047 21H5C3.89 21 3 20.1 3 19V5C3 3.9 3.89 3 5 3H17L21 7ZM5 9H15V5H5V9Z"
  />
  <path
    class="jp-icon3"
    fill="#616161"
    d="M17 13C14.24 13 12 15.24 12 18C12 20.76 14.24 23 17 23C19.76 23 22 20.76 22 18C22 15.24 19.76 13 17 13ZM15.75 20.5V15.5L19.75 18L15.75 20.5Z"
  />
</svg>
