<svg viewBox="0 0 24 24" xmlns="http://www.w3.org/2000/svg">
  <g class="jp-icon3 jp-icon-selectable" fill="currentColor">
    <path d="M16 13C13.24 13 11 15.24 11 18C11 20.76 13.24 23 16 23C18.76 23 21 20.76 21 18C21 15.24 18.76 13 16 13ZM14.75 20.5V15.5L18.75 18L14.75 20.5Z" />
    <path d="M10.5 1C11.88 1 13 2.12 13 3.5V5H17C18.1 5 19 5.9 19 7V11H20.5C21.88 11 23 12.12 23 13.5C23 14.4985 22.4124 15.3583 21.5654 15.7588C20.6774 13.5556 18.5211 12 16 12C12.7376 12 10.0843 14.6038 10.0029 17.8467C8.75004 18.0804 7.7998 19.1798 7.7998 20.5V22H4C2.9 22 2 21.1 2 20V16.2002H3.5C4.99 16.2002 6.2002 14.99 6.2002 13.5C6.2002 12.01 4.99 10.7998 3.5 10.7998H2.00977V7C2.00977 5.9 2.9 5 4 5H8V3.5C8 2.12 9.12 1 10.5 1Z" />
  </g>
</svg>
