<svg viewBox="0 0 21 21" xmlns="http://www.w3.org/2000/svg">
  <path
    class="jp-icon3"
    fill="#616161"
    d="M8.5 0C9.88 0 11 1.12 11 2.5V4H15C16.1 4 17 4.9 17 6V10H18.5C19.88 10 21 11.12 21 12.5C21 13.88 19.88 15 18.5 15H17V19C17 20.1 16.1 21 15 21H11.2002V19.5C11.2002 18.01 9.99 16.7998 8.5 16.7998C7.01 16.7998 5.7998 18.01 5.7998 19.5V21H2C0.9 21 0 20.1 0 19V15.2002H1.5C2.99 15.2002 4.2002 13.99 4.2002 12.5C4.2002 11.01 2.99 9.7998 1.5 9.7998H0.00976562V6C0.00976562 4.9 0.9 4 2 4H6V2.5C6 1.12 7.12 0 8.5 0ZM7 14.4639L13 11L7 7.53613V14.4639Z"
  />
</svg>
